<svg xmlns="http://www.w3.org/2000/svg" xmlns:xlink="http://www.w3.org/1999/xlink" width="500" zoomAndPan="magnify" viewBox="0 0 375 374.999991" height="500" preserveAspectRatio="xMidYMid meet" version="1.0"><defs><clipPath id="bb9f6785af"><path d="M 110 0.0390625 L 203 0.0390625 L 203 104 L 110 104 Z M 110 0.0390625 " clip-rule="nonzero"/></clipPath><clipPath id="622735a9b5"><path d="M 0.199219 255 L 312.679688 255 L 312.679688 369 L 0.199219 369 Z M 0.199219 255 " clip-rule="nonzero"/></clipPath><clipPath id="77b22d7cbb"><rect x="0" width="313" y="0" height="370"/></clipPath></defs><path fill="#5d5a8c" d="M 211.195312 51.496094 C 200.328125 33.875 176.304688 32.699219 164.722656 50.289062 C 154.488281 65.828125 153.117188 86.972656 163.234375 103.066406 C 165.25 106.273438 160.230469 110.253906 156.902344 106.597656 C 141.554688 89.703125 138.175781 64.277344 143.714844 42.671875 C 149.519531 20.0625 166.546875 3.664062 190.941406 5.382812 C 224.929688 7.777344 236.65625 44.078125 233.25 72.601562 C 231.671875 85.820312 226.480469 97.359375 217.671875 107.21875 C 215 110.210938 209.796875 106.648438 212.308594 102.324219 C 221.609375 86.300781 220.726562 66.949219 211.195312 51.496094 Z M 211.195312 51.496094 " fill-opacity="1" fill-rule="nonzero"/><path fill="#5d5a8c" d="M 105.992188 129.402344 C 108.628906 165.890625 137.859375 193.300781 172.171875 201.578125 C 181.777344 203.894531 191.113281 204.0625 201.035156 202.039062 C 241.328125 193.816406 273.125 159.59375 269.085938 116.976562 C 267.917969 104.679688 264.082031 93.203125 258.796875 81.714844 C 256.941406 77.671875 262.515625 74.105469 265.585938 78.105469 C 286.628906 105.539062 295.632812 141.460938 283.378906 174.511719 C 263.707031 227.617188 204.277344 258.386719 150.472656 235.8125 C 99.738281 214.519531 72.261719 158.503906 93.628906 105.90625 C 97.886719 95.421875 103.273438 86.078125 109.777344 77.867188 C 112.664062 74.226562 118.3125 77.628906 116.125 82.140625 C 109.140625 96.53125 104.835938 113.414062 105.992188 129.402344 Z M 105.992188 129.402344 " fill-opacity="1" fill-rule="nonzero"/><path fill="#5d5a8c" d="M 110.273438 274.222656 C 104.476562 273.527344 98.765625 273.082031 92.605469 274.179688 C 77.929688 276.800781 66.746094 285.992188 61.980469 299.9375 C 59.222656 308.023438 58.902344 317.164062 62.246094 324.863281 C 70.96875 344.953125 100.332031 340.410156 115.402344 333 C 174.105469 304.132812 216.640625 283.273438 243.003906 270.421875 C 264.371094 259.996094 291.21875 256.386719 313.359375 267.136719 C 346.519531 283.226562 352.433594 327.042969 329.484375 355.105469 C 311.945312 376.558594 287.25 377.742188 263.289062 366.3125 C 259.273438 364.398438 261 359.597656 265.355469 360.398438 C 289.074219 364.773438 312.355469 350.800781 315.007812 325.84375 C 317.816406 299.402344 295.199219 291.472656 273.847656 296.816406 C 265.015625 299.019531 258.210938 302.332031 250.371094 306.175781 C 211.484375 325.277344 172.578125 344.347656 133.65625 363.386719 C 115.53125 372.253906 94.785156 376.644531 75.109375 372.097656 C 51.34375 366.621094 34.980469 349.558594 32.265625 325.007812 C 29.542969 300.441406 42.664062 272.9375 66.992188 263.960938 C 81.867188 258.480469 97.738281 261.339844 111.753906 268.34375 C 115.285156 270.113281 114.339844 274.71875 110.273438 274.222656 Z M 110.273438 274.222656 " fill-opacity="1" fill-rule="nonzero"/><g transform="matrix(1, 0, 0, 1, 31, 5)"><g clip-path="url(#77b22d7cbb)"><g clip-path="url(#bb9f6785af)"><path fill="#5d5a8c" d="M 132.796875 46.496094 C 143.664062 28.875 167.683594 27.699219 179.265625 45.289062 C 189.503906 60.828125 190.875 81.972656 180.757812 98.066406 C 178.738281 101.273438 183.757812 105.253906 187.085938 101.597656 C 202.4375 84.703125 205.816406 59.277344 200.277344 37.671875 C 194.472656 15.0625 177.445312 -1.335938 153.050781 0.382812 C 119.0625 2.777344 107.335938 39.078125 110.738281 67.601562 C 112.316406 80.820312 117.511719 92.359375 126.320312 102.21875 C 128.992188 105.210938 134.191406 101.648438 131.683594 97.324219 C 122.382812 81.300781 123.265625 61.949219 132.796875 46.496094 Z M 132.796875 46.496094 " fill-opacity="1" fill-rule="nonzero"/></g><path fill="#5d5a8c" d="M 238 124.402344 C 235.359375 160.890625 206.132812 188.300781 171.820312 196.578125 C 162.214844 198.894531 152.878906 199.0625 142.957031 197.039062 C 102.664062 188.816406 70.863281 154.59375 74.90625 111.976562 C 76.074219 99.679688 79.910156 88.203125 85.195312 76.714844 C 87.050781 72.671875 81.476562 69.105469 78.402344 73.105469 C 57.359375 100.539062 48.355469 136.460938 60.609375 169.511719 C 80.285156 222.617188 139.714844 253.386719 193.519531 230.8125 C 244.253906 209.519531 271.730469 153.503906 250.363281 100.90625 C 246.101562 90.421875 240.71875 81.078125 234.210938 72.867188 C 231.328125 69.226562 225.675781 72.628906 227.863281 77.140625 C 234.851562 91.53125 239.15625 108.414062 238 124.402344 Z M 238 124.402344 " fill-opacity="1" fill-rule="nonzero"/><g clip-path="url(#622735a9b5)"><path fill="#5d5a8c" d="M 233.71875 269.222656 C 239.515625 268.527344 245.222656 268.082031 251.382812 269.179688 C 266.0625 271.800781 277.246094 280.992188 282.011719 294.9375 C 284.765625 303.023438 285.089844 312.164062 281.746094 319.863281 C 273.023438 339.953125 243.65625 335.410156 228.585938 328 C 169.882812 299.132812 127.351562 278.273438 100.988281 265.421875 C 79.621094 254.996094 52.773438 251.386719 30.632812 262.136719 C -2.527344 278.226562 -8.441406 322.042969 14.507812 350.105469 C 32.042969 371.558594 56.738281 372.742188 80.703125 361.3125 C 84.71875 359.398438 82.992188 354.597656 78.632812 355.398438 C 54.917969 359.773438 31.636719 345.800781 28.980469 320.84375 C 26.171875 294.402344 48.792969 286.472656 70.140625 291.816406 C 78.972656 294.019531 85.78125 297.332031 93.617188 301.175781 C 132.507812 320.277344 171.414062 339.347656 210.335938 358.386719 C 228.460938 367.253906 249.207031 371.644531 268.878906 367.097656 C 292.648438 361.621094 309.011719 344.558594 311.726562 320.007812 C 314.449219 295.441406 301.328125 267.9375 276.996094 258.960938 C 262.125 253.480469 246.253906 256.339844 232.238281 263.34375 C 228.707031 265.113281 229.652344 269.71875 233.71875 269.222656 Z M 233.71875 269.222656 " fill-opacity="1" fill-rule="nonzero"/></g></g></g></svg>