<svg xmlns="http://www.w3.org/2000/svg" xmlns:xlink="http://www.w3.org/1999/xlink" width="500" zoomAndPan="magnify" viewBox="0 0 375 374.999991" height="500" preserveAspectRatio="xMidYMid meet" version="1.0"><defs><clipPath id="d742fd7bf9"><path d="M 187.5 0 C 83.945312 0 0 83.945312 0 187.5 C 0 291.054688 83.945312 375 187.5 375 C 291.054688 375 375 291.054688 375 187.5 C 375 83.945312 291.054688 0 187.5 0 Z M 187.5 0 " clip-rule="nonzero"/></clipPath><clipPath id="e74c71b13a"><path d="M 0 0 L 375 0 L 375 375 L 0 375 Z M 0 0 " clip-rule="nonzero"/></clipPath><clipPath id="2a8d634af2"><path d="M 187.5 0 C 83.945312 0 0 83.945312 0 187.5 C 0 291.054688 83.945312 375 187.5 375 C 291.054688 375 375 291.054688 375 187.5 C 375 83.945312 291.054688 0 187.5 0 Z M 187.5 0 " clip-rule="nonzero"/></clipPath><clipPath id="c5cac23b08"><rect x="0" width="375" y="0" height="375"/></clipPath><clipPath id="6e7b383758"><path d="M 98 0.761719 L 181 0.761719 L 181 93 L 98 93 Z M 98 0.761719 " clip-rule="nonzero"/></clipPath><clipPath id="a9c1db7007"><path d="M 0.480469 228 L 278.640625 228 L 278.640625 329.800781 L 0.480469 329.800781 Z M 0.480469 228 " clip-rule="nonzero"/></clipPath><clipPath id="bce848be7a"><rect x="0" width="279" y="0" height="330"/></clipPath></defs><g clip-path="url(#d742fd7bf9)"><g transform="matrix(1, 0, 0, 1, 0, 0)"><g clip-path="url(#c5cac23b08)"><g clip-path="url(#e74c71b13a)"><g clip-path="url(#2a8d634af2)"><rect x="-82.5" width="540" fill="#05ffff" height="539.999987" y="-82.499998" fill-opacity="1"/></g></g></g></g></g><path fill="#5d5a8c" d="M 208.59375 47.121094 C 198.921875 31.429688 177.535156 30.386719 167.226562 46.042969 C 158.113281 59.875 156.894531 78.703125 165.898438 93.027344 C 167.695312 95.882812 163.226562 99.429688 160.265625 96.171875 C 146.597656 81.132812 143.589844 58.496094 148.523438 39.261719 C 153.6875 19.136719 168.847656 4.539062 190.566406 6.066406 C 220.820312 8.195312 231.261719 40.511719 228.230469 65.90625 C 226.828125 77.671875 222.203125 87.945312 214.359375 96.722656 C 211.980469 99.390625 207.351562 96.214844 209.585938 92.367188 C 217.867188 78.101562 217.078125 60.875 208.59375 47.121094 Z M 208.59375 47.121094 " fill-opacity="1" fill-rule="nonzero"/><path fill="#5d5a8c" d="M 114.941406 116.472656 C 117.289062 148.957031 143.308594 173.355469 173.855469 180.726562 C 182.40625 182.789062 190.71875 182.941406 199.550781 181.136719 C 235.421875 173.820312 263.730469 143.351562 260.132812 105.414062 C 259.09375 94.464844 255.675781 84.246094 250.972656 74.019531 C 249.320312 70.421875 254.28125 67.246094 257.019531 70.808594 C 275.75 95.230469 283.765625 127.207031 272.859375 156.628906 C 255.34375 203.910156 202.4375 231.300781 154.535156 211.203125 C 109.371094 192.25 84.910156 142.378906 103.933594 95.558594 C 107.726562 86.222656 112.519531 77.902344 118.3125 70.59375 C 120.878906 67.351562 125.910156 70.382812 123.960938 74.398438 C 117.742188 87.207031 113.910156 102.238281 114.941406 116.472656 Z M 114.941406 116.472656 " fill-opacity="1" fill-rule="nonzero"/><path fill="#5d5a8c" d="M 118.75 245.398438 C 113.589844 244.777344 108.507812 244.382812 103.023438 245.363281 C 89.957031 247.695312 80 255.875 75.757812 268.292969 C 73.304688 275.488281 73.015625 283.625 75.996094 290.480469 C 83.757812 308.367188 109.902344 304.320312 123.316406 297.722656 C 175.578125 272.027344 213.445312 253.457031 236.914062 242.011719 C 255.933594 232.734375 279.835938 229.519531 299.546875 239.089844 C 329.066406 253.414062 334.332031 292.421875 313.902344 317.40625 C 298.289062 336.503906 276.304688 337.554688 254.972656 327.382812 C 251.398438 325.675781 252.933594 321.40625 256.8125 322.117188 C 277.925781 326.011719 298.652344 313.570312 301.015625 291.351562 C 303.515625 267.816406 283.378906 260.753906 264.375 265.511719 C 256.511719 267.472656 250.449219 270.421875 243.472656 273.84375 C 208.851562 290.851562 174.21875 307.828125 139.566406 324.773438 C 123.433594 332.667969 104.964844 336.578125 87.449219 332.53125 C 66.289062 327.652344 51.722656 312.464844 49.304688 290.609375 C 46.882812 268.738281 58.5625 244.253906 80.222656 236.261719 C 93.464844 231.386719 107.589844 233.929688 120.070312 240.164062 C 123.210938 241.742188 122.371094 245.839844 118.75 245.398438 Z M 118.75 245.398438 " fill-opacity="1" fill-rule="nonzero"/><g transform="matrix(1, 0, 0, 1, 48, 5)"><g clip-path="url(#bce848be7a)"><g clip-path="url(#6e7b383758)"><path fill="#5d5a8c" d="M 118.398438 42.121094 C 128.074219 26.429688 149.460938 25.386719 159.769531 41.042969 C 168.882812 54.875 170.101562 73.703125 161.09375 88.027344 C 159.300781 90.882812 163.769531 94.429688 166.730469 91.171875 C 180.398438 76.132812 183.40625 53.496094 178.472656 34.261719 C 173.308594 14.136719 158.148438 -0.460938 136.429688 1.066406 C 106.171875 3.195312 95.734375 35.511719 98.765625 60.90625 C 100.167969 72.671875 104.792969 82.945312 112.636719 91.722656 C 115.015625 94.390625 119.640625 91.214844 117.40625 87.367188 C 109.128906 73.101562 109.914062 55.875 118.398438 42.121094 Z M 118.398438 42.121094 " fill-opacity="1" fill-rule="nonzero"/></g><path fill="#5d5a8c" d="M 212.054688 111.472656 C 209.707031 143.957031 183.683594 168.355469 153.140625 175.726562 C 144.589844 177.789062 136.277344 177.941406 127.445312 176.136719 C 91.574219 168.820312 63.265625 138.351562 66.863281 100.414062 C 67.902344 89.464844 71.320312 79.246094 76.023438 69.019531 C 77.675781 65.421875 72.710938 62.246094 69.976562 65.808594 C 51.242188 90.230469 43.230469 122.207031 54.136719 151.628906 C 71.652344 198.910156 124.558594 226.300781 172.457031 206.203125 C 217.625 187.25 242.085938 137.378906 223.0625 90.558594 C 219.269531 81.222656 214.476562 72.902344 208.683594 65.59375 C 206.117188 62.351562 201.085938 65.382812 203.03125 69.398438 C 209.253906 82.207031 213.085938 97.238281 212.054688 111.472656 Z M 212.054688 111.472656 " fill-opacity="1" fill-rule="nonzero"/><g clip-path="url(#a9c1db7007)"><path fill="#5d5a8c" d="M 208.246094 240.398438 C 213.402344 239.777344 218.488281 239.382812 223.972656 240.363281 C 237.039062 242.695312 246.992188 250.875 251.234375 263.292969 C 253.691406 270.488281 253.976562 278.625 251 285.480469 C 243.234375 303.367188 217.09375 299.320312 203.675781 292.722656 C 151.417969 267.027344 113.550781 248.457031 90.082031 237.011719 C 71.0625 227.734375 47.160156 224.519531 27.449219 234.089844 C -2.074219 248.414062 -7.335938 287.421875 13.09375 312.40625 C 28.707031 331.503906 50.691406 332.554688 72.023438 322.382812 C 75.597656 320.675781 74.0625 316.40625 70.183594 317.117188 C 49.070312 321.011719 28.34375 308.570312 25.980469 286.351562 C 23.480469 262.816406 43.613281 255.753906 62.621094 260.511719 C 70.484375 262.472656 76.546875 265.421875 83.523438 268.84375 C 118.140625 285.851562 152.777344 302.828125 187.425781 319.773438 C 203.5625 327.667969 222.03125 331.578125 239.546875 327.53125 C 260.707031 322.652344 275.273438 307.464844 277.6875 285.609375 C 280.113281 263.738281 268.433594 239.253906 246.773438 231.261719 C 233.53125 226.386719 219.402344 228.929688 206.925781 235.164062 C 203.78125 236.742188 204.625 240.839844 208.246094 240.398438 Z M 208.246094 240.398438 " fill-opacity="1" fill-rule="nonzero"/></g></g></g></svg>